<svg width="132" height="132" viewBox="0 0 132 132" fill="none" xmlns="http://www.w3.org/2000/svg">
<g clip-path="url(#clip0_4001_3236)">
<circle cx="65.7998" cy="66.2041" r="66" fill="white"/>
<path d="M111.88 31.6337V101.335H97.9396V31.6337H111.88Z" fill="black" stroke="white" stroke-width="1.26731"/>
<path d="M64.4166 101.335H39.6424V31.6337H64.1586C70.8617 31.6337 76.6167 33.0351 81.4478 35.8117L81.4507 35.8134C86.3029 38.5675 90.0435 42.5389 92.6767 47.7461L92.6782 47.7489C95.331 52.9307 96.6712 59.1684 96.6712 66.4846C96.6712 73.8013 95.3416 80.0517 92.709 85.2576C90.0753 90.4428 86.355 94.415 81.5444 97.1921C76.7341 99.9461 71.0325 101.335 64.4166 101.335ZM53.7679 85.613V86.2466H54.4015H63.7717C67.11 86.2466 69.9944 85.6685 72.4019 84.4838C74.8803 83.2749 76.7381 81.1974 77.9909 78.3132C79.2669 75.4253 79.8822 71.4668 79.8822 66.4846C79.8822 61.5018 79.2561 57.5419 77.9573 54.6527C76.6804 51.7645 74.7765 49.6886 72.2342 48.4821C69.7621 47.2989 66.761 46.7225 63.2558 46.7225H54.4015H53.7679V47.3562V85.613Z" fill="black" stroke="white" stroke-width="1.26731"/>
<path d="M35.3805 31.6337V101.336H20.6337V31.6337H35.3805Z" fill="black" stroke="white" stroke-width="1.26731"/>
</g>
<defs>
<clipPath id="clip0_4001_3236">
<rect width="132" height="132" fill="white"/>
</clipPath>
</defs>
</svg>
