<svg width="24" height="16" viewBox="0 0 24 16" fill="none" xmlns="http://www.w3.org/2000/svg">
<g clip-path="url(#clip0_2902_22787)">
<path d="M21.9972 15.7499L21.9994 15.7499C22.9545 15.7581 23.7381 14.9773 23.75 14.0042L23.75 2.0063C23.7462 1.53569 23.5589 1.08617 23.2297 0.756802C22.9014 0.428269 22.4589 0.246149 21.9972 0.250071L2.00064 0.250062C1.54109 0.246149 1.09858 0.428269 0.770279 0.756802C0.441145 1.08617 0.253838 1.53569 0.250008 2.00426L0.25 13.9937C0.253838 14.4643 0.441145 14.9138 0.770279 15.2432C1.09858 15.5717 1.54109 15.7538 2.00277 15.7499H21.9972ZM21.9962 16.2499L21.9951 16.2499L21.9972 16.2499H21.9962Z" fill="white" stroke="black" stroke-opacity="0.2" stroke-width="0.5"/>
<path d="M12.6123 16.0002H21.9971C22.5239 16.0046 23.0309 15.7995 23.4065 15.4301C23.7821 15.0607 23.9955 14.5573 23.9999 14.0305V11.6719C20.4561 13.7062 16.6127 15.167 12.6123 16.0002Z" fill="#F27712"/>
<path d="M23.172 9.2979H22.3196L21.3596 8.03169H21.2685V9.2979H20.5734V6.15307H21.5996C22.4023 6.15307 22.8658 6.48411 22.8658 7.07997C22.8658 7.56824 22.5761 7.88273 22.0547 7.98204L23.172 9.2979ZM22.1458 7.10479C22.1458 6.79859 21.914 6.64135 21.4837 6.64135H21.2685V7.59307H21.4671C21.914 7.59307 22.1458 7.42755 22.1458 7.10479ZM18.1403 6.15307H20.1099V6.68273H18.8354V7.38617H20.0603V7.92411H18.8354V8.77652H20.1099V9.30617H18.1403V6.15307ZM15.9058 9.38066L14.3996 6.14479H15.1609L16.1127 8.26342L17.0727 6.14479H17.8175L16.2947 9.38066H15.9223H15.9058ZM9.60784 9.37238C8.54853 9.37238 7.72094 8.65238 7.72094 7.71721C7.72094 6.80686 8.56508 6.07031 9.62439 6.07031C9.92232 6.07031 10.1706 6.12824 10.4768 6.26066V6.98893C10.2449 6.76111 9.93291 6.63334 9.60784 6.63307C8.94577 6.63307 8.44094 7.11307 8.44094 7.71721C8.44094 8.35445 8.93749 8.80962 9.64094 8.80962C9.95542 8.80962 10.1954 8.71031 10.4768 8.46204V9.19031C10.1623 9.32273 9.89749 9.37238 9.60784 9.37238ZM7.50577 8.3379C7.50577 8.95031 7.00094 9.37238 6.27267 9.37238C5.74301 9.37238 5.36232 9.19031 5.03956 8.77652L5.49473 8.38755C5.65198 8.66893 5.9168 8.80962 6.24784 8.80962C6.56232 8.80962 6.78577 8.61928 6.78577 8.371C6.78577 8.23031 6.71956 8.12273 6.57887 8.03997C6.42461 7.96511 6.26397 7.90418 6.09887 7.8579C5.44508 7.651 5.22163 7.42755 5.22163 6.98893C5.22163 6.47583 5.70163 6.08686 6.3306 6.08686C6.72784 6.08686 7.0837 6.211 7.38163 6.44273L7.01749 6.85652C6.87317 6.6983 6.66889 6.60817 6.45473 6.60824C6.1568 6.60824 5.94163 6.75721 5.94163 6.95583C5.94163 7.12135 6.06577 7.21238 6.47956 7.35307C7.27404 7.60135 7.50577 7.83307 7.50577 8.34617V8.3379ZM4.08784 6.15307H4.78301V9.30617H4.08784V6.15307ZM1.85336 9.30617H0.827148V6.15307H1.85336C2.97887 6.15307 3.7568 6.79859 3.7568 7.72548C3.7568 8.19721 3.52508 8.64411 3.11956 8.94204C2.77198 9.19031 2.38301 9.30617 1.84508 9.30617H1.85336ZM2.66439 6.93928C2.43267 6.75721 2.16784 6.691 1.71267 6.691H1.52232V8.77652H1.71267C2.15956 8.77652 2.44094 8.69376 2.66439 8.52824C2.90439 8.32962 3.04508 8.03169 3.04508 7.72548C3.04508 7.41928 2.90439 7.12962 2.66439 6.93928Z" fill="black"/>
<path d="M12.414 6.07031C11.5036 6.07031 10.7588 6.79859 10.7588 7.70066C10.7588 8.66066 11.4705 9.38066 12.414 9.38066C13.3409 9.38066 14.0691 8.65238 14.0691 7.72548C14.0691 6.79859 13.3491 6.07031 12.414 6.07031Z" fill="#F27712"/>
</g>
<defs>
<clipPath id="clip0_2902_22787">
<rect width="24" height="16" fill="white"/>
</clipPath>
</defs>
</svg>
