<svg xmlns="http://www.w3.org/2000/svg" version="1.1" xmlns:xlink="http://www.w3.org/1999/xlink" xmlns:svgjs="http://svgjs.dev/svgjs" width="74" height="76"><svg width="74" height="76" viewBox="0 0 74 76" fill="none" xmlns="http://www.w3.org/2000/svg">
<g id="SvgjsG1007">
<ellipse id="SvgjsEllipse1006" cx="37" cy="36.5926" rx="37" ry="36.5926" fill="white"></ellipse>
<g id="SvgjsG1005">
<path id="SvgjsPath1004" d="M54.3267 36.5926V17.1389H62.3652V56.0463H54.3267V36.5926ZM51.5737 26.1437C53.0721 29.0383 53.8267 32.5182 53.8267 36.5926C53.8267 40.6673 53.078 44.1541 51.5912 47.0618C50.104 49.9576 48.0015 52.1786 45.2819 53.7313C42.5621 55.2714 39.3416 56.0463 35.6113 56.0463H21.5959V17.1389H35.4665C39.2454 17.1389 42.4959 17.9204 45.2274 19.473L45.2285 19.4737C47.9719 21.0137 50.086 23.2344 51.5731 26.1426L51.5737 26.1437ZM29.7383 47.2141V47.4641H29.9883H35.2493C37.1113 47.4641 38.7135 47.1453 40.047 46.4963C41.4122 45.8378 42.4399 44.7047 43.1355 43.1207C43.8438 41.5354 44.1889 39.3531 44.1889 36.5926C44.1889 33.8318 43.8377 31.6489 43.1168 30.0631C42.4081 28.4777 41.3552 27.3453 39.9542 26.6878C38.5844 26.0394 36.9163 25.7211 34.9596 25.7211H29.9883H29.7383V25.9711V47.2141ZM19.4141 17.1389V56.0467H10.9229V17.1389H19.4141Z" fill="black" stroke="white" stroke-width="0.5"></path>
</g>
</g>
</svg><style>@media (prefers-color-scheme: light) { :root { filter: none; } }
@media (prefers-color-scheme: dark) { :root { filter: none; } }
</style></svg>