<svg width="16" height="22" viewBox="0 0 16 22" fill="none" xmlns="http://www.w3.org/2000/svg">
<path fill-rule="evenodd" clip-rule="evenodd" d="M1.97675 9.29454C0.976247 9.29454 0.767442 9.4909 0.767442 10.4315V12.1369C0.767442 13.0776 0.976247 13.2739 1.97675 13.2739H4.39534V20.0956C4.39534 21.0362 4.60415 21.2326 5.60465 21.2326H8.02325C9.02379 21.2326 9.23253 21.0362 9.23253 20.0956V13.2739H11.9483C12.7071 13.2739 12.9026 13.1352 13.1111 12.4493L13.6294 10.7439C13.9864 9.56887 13.7664 9.29454 12.4665 9.29454H9.23253V6.4522C9.23253 5.82428 9.77394 5.31524 10.4418 5.31524H13.8837C14.8842 5.31524 15.093 5.11893 15.093 4.17829V1.90439C15.093 0.963753 14.8842 0.767442 13.8837 0.767442H10.4418C7.10242 0.767442 4.39534 3.3126 4.39534 6.4522V9.29454H1.97675Z" stroke="white" stroke-width="1.5" stroke-linejoin="round"/>
</svg>
