<svg width="382" height="82" viewBox="0 0 382 82" fill="none" xmlns="http://www.w3.org/2000/svg">
<g clip-path="url(#clip0_3154_27419)">
<circle cx="40.875" cy="41.125" r="41" fill="white"/>
<path d="M69.2588 19.8916V62.7109H61.0791V19.8916H69.2588Z" fill="black" stroke="white" stroke-width="1.26731"/>
<path d="M39.8535 19.8916C43.9836 19.8916 47.5163 20.7548 50.4746 22.4551L50.4775 22.457C53.4487 24.1435 55.7401 26.5743 57.3555 29.7686L57.3564 29.7715C58.9833 32.9493 59.8115 36.785 59.8115 41.3008C59.8115 45.8173 58.9898 49.6622 57.375 52.8555C55.7592 56.0362 53.4807 58.4682 50.5352 60.1689C47.5893 61.8555 44.0895 62.7109 40.0137 62.7109H24.8643V19.8916H39.8535ZM33.1592 53.8174H39.6133C41.7141 53.8174 43.5447 53.4543 45.0811 52.6982L45.0801 52.6973C46.6789 51.9172 47.8681 50.5798 48.665 48.7461L48.666 48.7471C49.4783 46.9091 49.8613 44.4111 49.8613 41.3008C49.8613 38.1898 49.4716 35.6908 48.6445 33.8516H48.6436C47.8306 32.0142 46.6111 30.6777 44.9727 29.9004C43.3965 29.1463 41.4949 28.7852 39.293 28.7852H33.1592V53.8174Z" fill="black" stroke="white" stroke-width="1.26731"/>
<path d="M21.7363 19.8916V62.7119H13.0557V19.8916H21.7363Z" fill="black" stroke="white" stroke-width="1.26731"/>
</g>
<path d="M109.132 36V10.62H112.084V36H109.132ZM123.851 36V13.176H114.635V10.62H136.055V13.176H126.839V36H123.851ZM133.369 36L144.565 10.62H147.085L158.281 36H155.221L152.089 28.764L153.529 29.52H138.049L139.525 28.764L136.429 36H133.369ZM145.789 14.076L139.993 27.72L139.129 27.036H152.449L151.657 27.72L145.861 14.076H145.789ZM161.324 36V10.62H164.276V33.408H177.2V36H161.324ZM180.15 36V10.62H183.102V36H180.15ZM186.193 36L197.389 10.62H199.909L211.105 36H208.045L204.913 28.764L206.353 29.52H190.873L192.349 28.764L189.253 36H186.193ZM198.613 14.076L192.817 27.72L191.953 27.036H205.273L204.481 27.72L198.685 14.076H198.613ZM214.148 36V10.62H216.452L232.616 32.184H231.752V10.62H234.488V36H232.256L216.092 14.436H216.92V36H214.148ZM248.602 36V10.62H257.17C259.93 10.62 262.258 11.112 264.154 12.096C266.074 13.056 267.526 14.484 268.51 16.38C269.518 18.252 270.022 20.556 270.022 23.292C270.022 26.028 269.518 28.344 268.51 30.24C267.526 32.136 266.074 33.576 264.154 34.56C262.258 35.52 259.93 36 257.17 36H248.602ZM251.554 33.48H256.954C260.29 33.48 262.774 32.628 264.406 30.924C266.062 29.22 266.89 26.676 266.89 23.292C266.89 19.908 266.062 17.376 264.406 15.696C262.75 13.992 260.266 13.14 256.954 13.14H251.554V33.48ZM274.601 36V10.62H290.621V13.104H277.481V21.888H289.865V24.372H277.481V33.516H290.621V36H274.601ZM302.726 36.324C301.406 36.324 300.158 36.204 298.982 35.964C297.83 35.724 296.762 35.388 295.778 34.956C294.818 34.5 293.942 33.948 293.15 33.3L294.194 30.924C295.01 31.524 295.838 32.04 296.678 32.472C297.542 32.88 298.466 33.192 299.45 33.408C300.458 33.6 301.55 33.696 302.726 33.696C304.886 33.696 306.482 33.3 307.514 32.508C308.57 31.692 309.098 30.624 309.098 29.304C309.098 28.608 308.93 28.008 308.594 27.504C308.282 27 307.754 26.568 307.01 26.208C306.29 25.848 305.342 25.548 304.166 25.308L300.422 24.552C298.166 24.072 296.474 23.292 295.346 22.212C294.242 21.108 293.69 19.644 293.69 17.82C293.69 16.308 294.074 14.988 294.842 13.86C295.634 12.732 296.726 11.856 298.118 11.232C299.534 10.608 301.142 10.296 302.942 10.296C304.094 10.296 305.186 10.416 306.218 10.656C307.25 10.896 308.198 11.256 309.062 11.736C309.95 12.192 310.73 12.756 311.402 13.428L310.358 15.732C309.278 14.748 308.138 14.04 306.938 13.608C305.738 13.152 304.394 12.924 302.906 12.924C301.634 12.924 300.53 13.116 299.594 13.5C298.682 13.884 297.962 14.448 297.434 15.192C296.93 15.912 296.678 16.752 296.678 17.712C296.678 18.864 297.026 19.776 297.722 20.448C298.442 21.12 299.606 21.612 301.214 21.924L304.958 22.716C307.382 23.22 309.17 23.988 310.322 25.02C311.498 26.028 312.086 27.408 312.086 29.16C312.086 30.552 311.702 31.8 310.934 32.904C310.19 33.984 309.11 34.824 307.694 35.424C306.302 36.024 304.646 36.324 302.726 36.324ZM315.946 36V10.62H318.898V36H315.946ZM336.029 36.324C333.317 36.324 331.025 35.808 329.153 34.776C327.305 33.744 325.901 32.256 324.941 30.312C323.981 28.368 323.501 26.04 323.501 23.328C323.501 20.64 323.981 18.324 324.941 16.38C325.901 14.436 327.281 12.936 329.081 11.88C330.881 10.824 333.053 10.296 335.597 10.296C336.797 10.296 337.925 10.416 338.981 10.656C340.061 10.896 341.057 11.256 341.969 11.736C342.905 12.192 343.721 12.768 344.417 13.464L343.265 15.84C342.113 14.832 340.925 14.1 339.701 13.644C338.477 13.188 337.097 12.96 335.561 12.96C332.657 12.96 330.437 13.86 328.901 15.66C327.389 17.46 326.633 20.016 326.633 23.328C326.633 26.688 327.413 29.256 328.973 31.032C330.557 32.808 332.933 33.696 336.101 33.696C337.253 33.696 338.381 33.588 339.485 33.372C340.589 33.132 341.633 32.808 342.617 32.4L341.969 34.092V25.128H335.525V22.788H344.525V34.524C343.877 34.86 343.073 35.172 342.113 35.46C341.153 35.724 340.145 35.928 339.089 36.072C338.033 36.24 337.013 36.324 336.029 36.324ZM349.838 36V10.62H352.142L368.306 32.184H367.442V10.62H370.178V36H367.946L351.782 14.436H352.61V36H349.838ZM109.132 70V44.62H112.084V70H109.132ZM117.623 70V44.62H119.927L136.091 66.184H135.227V44.62H137.963V70H135.731L119.567 48.436H120.395V70H117.623ZM149.779 70V47.176H140.563V44.62H161.983V47.176H152.767V70H149.779ZM164.488 70V44.62H180.508V47.104H167.368V55.888H179.752V58.372H167.368V67.516H180.508V70H164.488ZM184.756 70V44.62H194.8C197.512 44.62 199.6 45.256 201.064 46.528C202.528 47.8 203.26 49.612 203.26 51.964C203.26 53.452 202.924 54.748 202.252 55.852C201.604 56.932 200.644 57.76 199.372 58.336C198.1 58.888 196.576 59.164 194.8 59.164L195.16 58.696H195.88C196.816 58.696 197.632 58.936 198.328 59.416C199.024 59.896 199.66 60.664 200.236 61.72L204.7 70H201.46L197.068 61.864C196.708 61.192 196.3 60.664 195.844 60.28C195.412 59.896 194.908 59.632 194.332 59.488C193.78 59.344 193.108 59.272 192.316 59.272H187.708V70H184.756ZM187.708 56.932H194.368C196.336 56.932 197.824 56.524 198.832 55.708C199.84 54.868 200.344 53.62 200.344 51.964C200.344 50.356 199.84 49.144 198.832 48.328C197.824 47.488 196.336 47.068 194.368 47.068H187.708V56.932ZM208.118 70V44.62H211.07V70H208.118ZM227.265 70.324C225.513 70.324 223.917 70.024 222.477 69.424C221.037 68.8 219.813 67.924 218.805 66.796C217.797 65.668 217.017 64.3 216.465 62.692C215.937 61.084 215.673 59.284 215.673 57.292C215.673 55.276 215.937 53.476 216.465 51.892C217.017 50.284 217.797 48.928 218.805 47.824C219.813 46.696 221.025 45.832 222.441 45.232C223.881 44.608 225.489 44.296 227.265 44.296C229.065 44.296 230.673 44.596 232.089 45.196C233.529 45.796 234.753 46.66 235.761 47.788C236.793 48.916 237.573 50.284 238.101 51.892C238.653 53.476 238.929 55.264 238.929 57.256C238.929 59.272 238.653 61.084 238.101 62.692C237.549 64.3 236.769 65.668 235.761 66.796C234.753 67.924 233.529 68.8 232.089 69.424C230.673 70.024 229.065 70.324 227.265 70.324ZM227.265 67.696C229.089 67.696 230.625 67.288 231.873 66.472C233.145 65.656 234.117 64.468 234.789 62.908C235.461 61.348 235.797 59.476 235.797 57.292C235.797 55.084 235.461 53.212 234.789 51.676C234.117 50.14 233.145 48.964 231.873 48.148C230.625 47.332 229.089 46.924 227.265 46.924C225.489 46.924 223.965 47.332 222.693 48.148C221.445 48.964 220.485 50.152 219.813 51.712C219.141 53.248 218.805 55.108 218.805 57.292C218.805 59.476 219.141 61.348 219.813 62.908C220.485 64.444 221.445 65.632 222.693 66.472C223.965 67.288 225.489 67.696 227.265 67.696ZM243.487 70V44.62H253.531C256.243 44.62 258.331 45.256 259.795 46.528C261.259 47.8 261.991 49.612 261.991 51.964C261.991 53.452 261.655 54.748 260.983 55.852C260.335 56.932 259.375 57.76 258.103 58.336C256.831 58.888 255.307 59.164 253.531 59.164L253.891 58.696H254.611C255.547 58.696 256.363 58.936 257.059 59.416C257.755 59.896 258.391 60.664 258.967 61.72L263.431 70H260.191L255.799 61.864C255.439 61.192 255.031 60.664 254.575 60.28C254.143 59.896 253.639 59.632 253.063 59.488C252.511 59.344 251.839 59.272 251.047 59.272H246.439V70H243.487ZM246.439 56.932H253.099C255.067 56.932 256.555 56.524 257.563 55.708C258.571 54.868 259.075 53.62 259.075 51.964C259.075 50.356 258.571 49.144 257.563 48.328C256.555 47.488 255.067 47.068 253.099 47.068H246.439V56.932ZM275.057 70.324C273.737 70.324 272.489 70.204 271.313 69.964C270.161 69.724 269.093 69.388 268.109 68.956C267.149 68.5 266.273 67.948 265.481 67.3L266.525 64.924C267.341 65.524 268.169 66.04 269.009 66.472C269.873 66.88 270.797 67.192 271.781 67.408C272.789 67.6 273.881 67.696 275.057 67.696C277.217 67.696 278.813 67.3 279.845 66.508C280.901 65.692 281.429 64.624 281.429 63.304C281.429 62.608 281.261 62.008 280.925 61.504C280.613 61 280.085 60.568 279.341 60.208C278.621 59.848 277.673 59.548 276.497 59.308L272.753 58.552C270.497 58.072 268.805 57.292 267.677 56.212C266.573 55.108 266.021 53.644 266.021 51.82C266.021 50.308 266.405 48.988 267.173 47.86C267.965 46.732 269.057 45.856 270.449 45.232C271.865 44.608 273.473 44.296 275.273 44.296C276.425 44.296 277.517 44.416 278.549 44.656C279.581 44.896 280.529 45.256 281.393 45.736C282.281 46.192 283.061 46.756 283.733 47.428L282.689 49.732C281.609 48.748 280.469 48.04 279.269 47.608C278.069 47.152 276.725 46.924 275.237 46.924C273.965 46.924 272.861 47.116 271.925 47.5C271.013 47.884 270.293 48.448 269.765 49.192C269.261 49.912 269.009 50.752 269.009 51.712C269.009 52.864 269.357 53.776 270.053 54.448C270.773 55.12 271.937 55.612 273.545 55.924L277.289 56.716C279.713 57.22 281.501 57.988 282.653 59.02C283.829 60.028 284.417 61.408 284.417 63.16C284.417 64.552 284.033 65.8 283.265 66.904C282.521 67.984 281.441 68.824 280.025 69.424C278.633 70.024 276.977 70.324 275.057 70.324Z" fill="white"/>
<defs>
<clipPath id="clip0_3154_27419">
<rect width="82" height="82" fill="white"/>
</clipPath>
</defs>
</svg>
