<svg width="17" height="8" viewBox="0 0 17 8" fill="none" xmlns="http://www.w3.org/2000/svg">
<path d="M13.0677 2.31042L10.1579 1.18952C9.19209 0.817491 8.70922 0.631475 8.20926 0.631475C7.70922 0.631475 7.22635 0.817491 6.26054 1.18952L3.35053 2.3105C1.53783 3.00878 0.631467 3.35792 0.631475 3.99952C0.631484 4.64113 1.53784 4.99024 3.35057 5.68846L6.26038 6.80924C7.2261 7.18122 7.70888 7.36721 8.20884 7.36721C8.7088 7.36721 9.19158 7.18122 10.1573 6.80932L13.0677 5.68841C14.8805 4.99021 15.7869 4.64111 15.7869 3.99949C15.7869 3.35788 14.8805 3.00873 13.0677 2.31042Z" stroke="black" stroke-width="1.25" stroke-linecap="round" stroke-linejoin="round"/>
</svg>
