<svg width="19" height="12" viewBox="0 0 19 12" fill="none" xmlns="http://www.w3.org/2000/svg">
<path d="M18.3158 3.96079V1.26316C18.3158 0.928148 18.1827 0.606858 17.9458 0.36997C17.7089 0.133082 17.3876 0 17.0526 0H1.89474C1.55973 0 1.23844 0.133082 1.00155 0.36997C0.764661 0.606858 0.631579 0.928148 0.631579 1.26316V3.96079C0.43986 4.07148 0.280599 4.23061 0.169752 4.42223C0.0589046 4.61386 0.000365536 4.83125 0 5.05263V8.84211C0 9.17712 0.133082 9.4984 0.36997 9.73529C0.606858 9.97218 0.928148 10.1053 1.26316 10.1053H1.89474V11.3684C1.89474 11.5359 1.96128 11.6966 2.07972 11.815C2.19817 11.9335 2.35881 12 2.52632 12C2.69382 12 2.85447 11.9335 2.97291 11.815C3.09135 11.6966 3.15789 11.5359 3.15789 11.3684V10.1053H15.7895V11.3684C15.7895 11.5359 15.856 11.6966 15.9745 11.815C16.0929 11.9335 16.2535 12 16.4211 12C16.5886 12 16.7492 11.9335 16.8676 11.815C16.9861 11.6966 17.0526 11.5359 17.0526 11.3684V10.1053H17.6842C18.0192 10.1053 18.3405 9.97218 18.5774 9.73529C18.8143 9.4984 18.9474 9.17712 18.9474 8.84211V5.05263C18.947 4.83125 18.8885 4.61386 18.7776 4.42223C18.6668 4.23061 18.5075 4.07148 18.3158 3.96079ZM17.0526 3.78947H16.4211C16.086 3.78947 15.7648 3.92256 15.5279 4.15944C15.291 4.39633 15.1579 4.71762 15.1579 5.05263V6.31579H10.1053V1.26316H17.0526V3.78947ZM8.84211 1.26316V6.31579H3.78947V5.05263C3.78947 4.71762 3.65639 4.39633 3.4195 4.15944C3.18262 3.92256 2.86133 3.78947 2.52632 3.78947H1.89474V1.26316H8.84211ZM17.6842 8.84211H1.26316V5.05263H2.52632V6.94737C2.52632 7.11487 2.59286 7.27552 2.7113 7.39396C2.82975 7.51241 2.99039 7.57895 3.15789 7.57895H15.7895C15.957 7.57895 16.1176 7.51241 16.2361 7.39396C16.3545 7.27552 16.4211 7.11487 16.4211 6.94737V5.05263H17.6842V8.84211Z" fill="black"/>
</svg>
