<svg width="22" height="19" viewBox="0 0 22 19" fill="none" xmlns="http://www.w3.org/2000/svg">
<path d="M11 18.1628C12.8518 18.1628 14.6275 17.9798 16.2732 17.6444C18.3289 17.2254 19.3567 17.0158 20.2946 15.8099C21.2326 14.604 21.2326 13.2197 21.2326 10.451V8.47921C21.2326 5.71051 21.2326 4.32619 20.2946 3.12029C19.3567 1.91439 18.3289 1.70488 16.2732 1.28584C14.6275 0.950369 12.8518 0.767442 11 0.767442C9.14821 0.767442 7.37245 0.950369 5.72671 1.28584C3.67109 1.70488 2.64328 1.91439 1.70536 3.12029C0.767442 4.32619 0.767442 5.71051 0.767442 8.47921V10.451C0.767442 13.2197 0.767442 14.604 1.70536 15.8099C2.64328 17.0158 3.67109 17.2254 5.72671 17.6444C7.37245 17.9798 9.14821 18.1628 11 18.1628Z" stroke="white" stroke-width="1.5"/>
</svg>
