<svg width="190" height="54" viewBox="0 0 190 54" fill="none" xmlns="http://www.w3.org/2000/svg">
<circle cx="27.0254" cy="27" r="27" fill="white"/>
<path d="M45.9163 12.707V41.8247H39.6768V12.707H45.9163Z" fill="black"/>
<path d="M26.1862 41.8247H15.7617V12.707H26.0804C28.8673 12.707 31.275 13.29 33.3034 14.4558C35.3407 15.6122 36.9105 17.2804 38.0129 19.4604C39.1242 21.6309 39.6798 24.2328 39.6798 27.2659C39.6798 30.2989 39.1286 32.9055 38.0262 35.0855C36.9237 37.2561 35.3627 38.9243 33.3431 40.0901C31.3235 41.2465 28.9378 41.8247 26.1862 41.8247ZM22.0771 35.114H25.9216C27.2621 35.114 28.4043 34.8818 29.3479 34.4173C30.3004 33.9529 31.0236 33.1519 31.5175 32.0145C32.0202 30.8771 32.2715 29.2942 32.2715 27.2659C32.2715 25.2375 32.0158 23.6546 31.5043 22.5172C31.0015 21.3798 30.2607 20.5788 29.2818 20.1144C28.3117 19.65 27.121 19.4177 25.7099 19.4177H22.0771V35.114Z" fill="black"/>
<path d="M14.5323 12.707V41.825H7.96191V12.707H14.5323Z" fill="black"/>
<path d="M64.8252 12.6766H66.3966V24.7461H64.8252V12.6766Z" fill="white"/>
<path d="M68.5785 12.6766H76.3545V14.2291H73.2117V24.7461H71.6403V14.2291H68.5785V12.6766Z" fill="white"/>
<path d="M76.4422 24.7461L81.5614 12.1758H81.6586L86.7616 24.7461H84.9634L81.1402 14.7132L82.258 13.962L77.9812 24.7461H76.4422ZM79.3674 20.74H83.7252L84.2436 22.1422H78.9138L79.3674 20.74Z" fill="white"/>
<path d="M88.6436 12.6766H90.215V23.1936H96.1604V24.7461H88.6436V12.6766Z" fill="white"/>
<path d="M98.3971 12.6766H99.9685V24.7461H98.3971V12.6766Z" fill="white"/>
<path d="M101.843 24.7461L106.962 12.1758H107.059L112.162 24.7461H110.364L106.541 14.7132L107.658 13.962L103.382 24.7461H101.843ZM104.65 20.74H109.008L109.526 22.1422H104.197L104.65 20.74Z" fill="white"/>
<path d="M124.185 25.1301L115.129 15.6648L115.583 15.7816L115.615 24.7461H114.044V12.3093H114.125L123.084 21.808L122.711 21.7246L122.679 12.6766H124.234V25.1301H124.185Z" fill="white"/>
<path d="M132.08 24.7461V12.6766H135.271C136.427 12.6766 137.41 12.8602 138.22 13.2275C139.04 13.5947 139.699 14.0789 140.196 14.6798C140.693 15.2808 141.055 15.9485 141.281 16.6831C141.519 17.4065 141.638 18.1299 141.638 18.8532C141.638 19.7658 141.481 20.5838 141.168 21.3072C140.866 22.0306 140.444 22.6483 139.904 23.1602C139.364 23.6721 138.743 24.0672 138.041 24.3455C137.35 24.6126 136.616 24.7461 135.838 24.7461H132.08ZM133.651 23.1936H135.53C136.178 23.1936 136.772 23.0934 137.312 22.8931C137.863 22.6928 138.338 22.4034 138.738 22.025C139.148 21.6467 139.467 21.1848 139.694 20.6395C139.921 20.083 140.034 19.4542 140.034 18.7531C140.034 18.0074 139.915 17.3564 139.678 16.7999C139.44 16.2323 139.116 15.7594 138.706 15.381C138.295 15.0026 137.831 14.7188 137.312 14.5296C136.794 14.3293 136.249 14.2291 135.676 14.2291H133.651V23.1936Z" fill="white"/>
<path d="M143.953 12.6766H151.567V14.2291H145.525V17.7387H150.919V19.2912H145.525V23.1936H151.794V24.7461H143.953V12.6766Z" fill="white"/>
<path d="M160.256 14.8301C159.856 14.6186 159.419 14.435 158.944 14.2792C158.469 14.1234 158.004 14.0455 157.551 14.0455C156.924 14.0455 156.422 14.1957 156.044 14.4962C155.677 14.7967 155.493 15.1973 155.493 15.6981C155.493 16.0765 155.612 16.3993 155.85 16.6664C156.087 16.9223 156.4 17.1449 156.789 17.3341C157.178 17.5233 157.583 17.7014 158.004 17.8683C158.371 18.013 158.733 18.1744 159.09 18.3524C159.446 18.5305 159.765 18.7531 160.045 19.0202C160.337 19.2873 160.564 19.6156 160.726 20.0051C160.899 20.3946 160.985 20.8787 160.985 21.4575C160.985 22.0918 160.828 22.6705 160.515 23.1936C160.213 23.7167 159.775 24.1284 159.203 24.4289C158.631 24.7294 157.95 24.8797 157.162 24.8797C156.643 24.8797 156.147 24.8184 155.671 24.696C155.207 24.5736 154.775 24.4178 154.375 24.2286C153.976 24.0283 153.619 23.8224 153.306 23.6109L154.003 22.3422C154.262 22.5314 154.559 22.715 154.894 22.8931C155.229 23.06 155.58 23.1992 155.947 23.3105C156.314 23.4106 156.67 23.4607 157.016 23.4607C157.383 23.4607 157.745 23.3939 158.101 23.2604C158.469 23.1157 158.771 22.8987 159.009 22.6093C159.246 22.32 159.365 21.936 159.365 21.4575C159.365 21.0457 159.257 20.7062 159.041 20.4391C158.836 20.1609 158.56 19.9272 158.215 19.738C157.869 19.5377 157.502 19.3596 157.113 19.2038C156.746 19.0591 156.373 18.9033 155.995 18.7364C155.617 18.5583 155.266 18.3469 154.942 18.102C154.618 17.8461 154.359 17.5344 154.165 17.1672C153.97 16.7999 153.873 16.3548 153.873 15.8317C153.873 15.1973 154.019 14.6464 154.311 14.179C154.613 13.7005 155.023 13.3276 155.542 13.0605C156.06 12.7823 156.654 12.6321 157.324 12.6098C158.08 12.6098 158.744 12.7044 159.316 12.8936C159.9 13.0828 160.413 13.3165 160.855 13.5947L160.256 14.8301Z" fill="white"/>
<path d="M163.302 12.6766H164.874V24.7461H163.302V12.6766Z" fill="white"/>
<path d="M177.083 23.7111C176.921 23.8558 176.694 24.0005 176.403 24.1451C176.111 24.2787 175.787 24.4011 175.431 24.5124C175.085 24.6237 174.723 24.7127 174.345 24.7795C173.978 24.8463 173.633 24.8797 173.309 24.8797C172.369 24.8797 171.521 24.7294 170.765 24.4289C170.02 24.1284 169.377 23.7111 168.837 23.1769C168.308 22.6427 167.898 22.0139 167.606 21.2905C167.326 20.5671 167.185 19.7825 167.185 18.9367C167.185 17.9351 167.342 17.0392 167.655 16.249C167.979 15.4477 168.416 14.7744 168.967 14.2291C169.529 13.6726 170.171 13.2553 170.895 12.9771C171.618 12.6877 172.385 12.543 173.195 12.543C173.876 12.543 174.507 12.6265 175.091 12.7934C175.674 12.9604 176.187 13.1718 176.63 13.4278L176.095 14.9135C175.879 14.78 175.609 14.6576 175.285 14.5463C174.972 14.435 174.648 14.346 174.313 14.2792C173.978 14.2013 173.665 14.1623 173.373 14.1623C172.682 14.1623 172.056 14.2736 171.494 14.4962C170.933 14.7077 170.452 15.0193 170.052 15.431C169.653 15.8317 169.345 16.3214 169.129 16.9001C168.913 17.4677 168.805 18.1076 168.805 18.8199C168.805 19.4765 168.913 20.0774 169.129 20.6228C169.345 21.1681 169.653 21.6411 170.052 22.0417C170.452 22.4313 170.927 22.7373 171.478 22.9599C172.04 23.1713 172.655 23.2771 173.325 23.2771C173.725 23.2771 174.119 23.2381 174.507 23.1602C174.896 23.0712 175.231 22.9488 175.512 22.7929V20.2058H173.179V18.6533H177.083V23.7111Z" fill="white"/>
<path d="M189.897 25.1301L180.841 15.6648L181.295 15.7816L181.327 24.7461H179.756V12.3093H179.837L188.796 21.808L188.423 21.7246L188.391 12.6766H189.946V25.1301H189.897Z" fill="white"/>
<path d="M64.8252 29.3703H66.3966V41.4398H64.8252V29.3703Z" fill="white"/>
<path d="M79.5783 41.8237L70.5225 32.3584L70.9761 32.4753L71.0085 41.4398H69.4371V29.003H69.5181L78.4767 38.5017L78.1041 38.4182L78.0717 29.3703H79.6269V41.8237H79.5783Z" fill="white"/>
<path d="M81.8125 29.3703H89.5885V30.9228H86.4457V41.4398H84.8743V30.9228H81.8125V29.3703Z" fill="white"/>
<path d="M91.7602 29.3703H99.3742V30.9228H93.3316V34.1675H98.7262V35.72H93.3316V39.8873H99.601V41.4398H91.7602V29.3703Z" fill="white"/>
<path d="M105.115 29.3703C105.709 29.3703 106.254 29.4537 106.751 29.6207C107.258 29.7765 107.696 30.0157 108.063 30.3385C108.441 30.6501 108.733 31.0396 108.938 31.507C109.154 31.9633 109.262 32.4975 109.262 33.1096C109.262 33.5882 109.192 34.0556 109.051 34.5119C108.922 34.9682 108.7 35.3855 108.387 35.7639C108.074 36.1312 107.663 36.4317 107.156 36.6654C106.659 36.888 106.043 36.9993 105.309 36.9993H103.576V41.4398H102.004V29.3703H105.115ZM105.277 35.4467C105.741 35.4467 106.124 35.3744 106.427 35.2297C106.74 35.085 106.983 34.9014 107.156 34.6788C107.329 34.4451 107.453 34.1947 107.528 33.9276C107.604 33.6605 107.642 33.4101 107.642 33.1764C107.642 32.9316 107.599 32.6812 107.512 32.4252C107.437 32.1581 107.307 31.9133 107.123 31.6907C106.951 31.4681 106.718 31.2845 106.427 31.1398C106.146 30.9951 105.8 30.9228 105.39 30.9228H103.576V35.4467H105.277ZM107.204 36.3649L110.266 41.4398H108.452L105.341 36.415L107.204 36.3649Z" fill="white"/>
<path d="M112.359 29.3703H113.93V41.4398H112.359V29.3703Z" fill="white"/>
<path d="M116.242 35.4134C116.242 34.5787 116.393 33.7941 116.695 33.0595C117.009 32.3139 117.441 31.6573 117.991 31.0897C118.542 30.511 119.174 30.0603 119.887 29.7375C120.61 29.4036 121.388 29.2367 122.22 29.2367C123.04 29.2367 123.807 29.4036 124.52 29.7375C125.244 30.0603 125.881 30.511 126.432 31.0897C126.993 31.6573 127.431 32.3139 127.744 33.0595C128.057 33.7941 128.214 34.5787 128.214 35.4134C128.214 36.2703 128.057 37.0716 127.744 37.8172C127.431 38.5629 126.993 39.2195 126.432 39.7871C125.881 40.3435 125.244 40.7831 124.52 41.1059C123.807 41.4175 123.04 41.5733 122.22 41.5733C121.388 41.5733 120.61 41.4175 119.887 41.1059C119.174 40.7943 118.542 40.3602 117.991 39.8038C117.441 39.2473 117.009 38.5963 116.695 37.8506C116.393 37.105 116.242 36.2926 116.242 35.4134ZM117.862 35.43C117.862 36.0644 117.975 36.6598 118.202 37.2163C118.429 37.7616 118.742 38.2457 119.142 38.6686C119.541 39.0915 120.006 39.4254 120.535 39.6702C121.064 39.9039 121.636 40.0208 122.252 40.0208C122.857 40.0208 123.424 39.9039 123.953 39.6702C124.482 39.4254 124.941 39.0915 125.33 38.6686C125.719 38.2457 126.027 37.7616 126.253 37.2163C126.48 36.6598 126.594 36.0588 126.594 35.4134C126.594 34.779 126.48 34.1836 126.253 33.6271C126.027 33.0595 125.713 32.5643 125.314 32.1414C124.914 31.7185 124.45 31.3902 123.921 31.1565C123.391 30.9116 122.824 30.7892 122.22 30.7892C121.604 30.7892 121.032 30.9116 120.502 31.1565C119.973 31.4013 119.509 31.7352 119.109 32.1581C118.71 32.581 118.402 33.0762 118.186 33.6438C117.97 34.2003 117.862 34.7957 117.862 35.43Z" fill="white"/>
<path d="M133.647 29.3703C134.241 29.3703 134.787 29.4537 135.284 29.6207C135.791 29.7765 136.229 30.0157 136.596 30.3385C136.974 30.6501 137.265 31.0396 137.471 31.507C137.687 31.9633 137.795 32.4975 137.795 33.1096C137.795 33.5882 137.724 34.0556 137.584 34.5119C137.454 34.9682 137.233 35.3855 136.92 35.7639C136.607 36.1312 136.196 36.4317 135.689 36.6654C135.192 36.888 134.576 36.9993 133.842 36.9993H132.108V41.4398H130.537V29.3703H133.647ZM133.809 35.4467C134.274 35.4467 134.657 35.3744 134.96 35.2297C135.273 35.085 135.516 34.9014 135.689 34.6788C135.861 34.4451 135.986 34.1947 136.061 33.9276C136.137 33.6605 136.175 33.4101 136.175 33.1764C136.175 32.9316 136.131 32.6812 136.045 32.4252C135.969 32.1581 135.84 31.9133 135.656 31.6907C135.483 31.4681 135.251 31.2845 134.96 31.1398C134.679 30.9951 134.333 30.9228 133.923 30.9228H132.108V35.4467H133.809ZM135.737 36.3649L138.799 41.4398H136.985L133.874 36.415L135.737 36.3649Z" fill="white"/>
<path d="M146.951 31.5237C146.551 31.3123 146.114 31.1287 145.638 30.9728C145.163 30.817 144.699 30.7391 144.245 30.7391C143.619 30.7391 143.117 30.8894 142.739 31.1899C142.371 31.4903 142.188 31.891 142.188 32.3918C142.188 32.7702 142.307 33.0929 142.544 33.36C142.782 33.616 143.095 33.8386 143.484 34.0278C143.873 34.217 144.278 34.395 144.699 34.562C145.066 34.7067 145.428 34.868 145.784 35.0461C146.141 35.2242 146.459 35.4467 146.74 35.7138C147.032 35.9809 147.258 36.3092 147.42 36.6988C147.593 37.0883 147.68 37.5724 147.68 38.1511C147.68 38.7855 147.523 39.3642 147.21 39.8873C146.907 40.4103 146.47 40.8221 145.898 41.1226C145.325 41.4231 144.645 41.5733 143.856 41.5733C143.338 41.5733 142.841 41.5121 142.366 41.3897C141.902 41.2673 141.47 41.1115 141.07 40.9223C140.67 40.7219 140.314 40.5161 140.001 40.3046L140.697 39.0359C140.957 39.2251 141.254 39.4087 141.588 39.5868C141.923 39.7537 142.274 39.8928 142.641 40.0041C143.009 40.1043 143.365 40.1544 143.711 40.1544C144.078 40.1544 144.44 40.0876 144.796 39.954C145.163 39.8094 145.466 39.5923 145.703 39.303C145.941 39.0136 146.06 38.6297 146.06 38.1511C146.06 37.7393 145.952 37.3999 145.736 37.1328C145.53 36.8546 145.255 36.6209 144.909 36.4317C144.564 36.2313 144.197 36.0533 143.808 35.8975C143.441 35.7528 143.068 35.597 142.69 35.43C142.312 35.252 141.961 35.0405 141.637 34.7957C141.313 34.5397 141.054 34.2281 140.859 33.8608C140.665 33.4936 140.568 33.0484 140.568 32.5254C140.568 31.891 140.714 31.3401 141.005 30.8727C141.308 30.3941 141.718 30.0213 142.236 29.7542C142.755 29.476 143.349 29.3257 144.018 29.3035C144.774 29.3035 145.439 29.3981 146.011 29.5873C146.594 29.7765 147.107 30.0102 147.55 30.2884L146.951 31.5237Z" fill="white"/>
</svg>
