<svg width="41" height="41" viewBox="0 0 41 41" fill="none" xmlns="http://www.w3.org/2000/svg">
<path d="M19.5489 3.4251C19.8483 2.50379 21.1517 2.50379 21.4511 3.4251L24.7658 13.6267C24.8996 14.0387 25.2836 14.3177 25.7168 14.3177H36.4434C37.4122 14.3177 37.8149 15.5573 37.0312 16.1267L28.3532 22.4317C28.0027 22.6863 27.8561 23.1377 27.9899 23.5497L31.3046 33.7513C31.604 34.6726 30.5495 35.4388 29.7658 34.8694L21.0878 28.5644C20.7373 28.3098 20.2627 28.3098 19.9122 28.5644L11.2342 34.8694C10.4505 35.4388 9.396 34.6726 9.69535 33.7513L13.0101 23.5497C13.1439 23.1377 12.9973 22.6863 12.6468 22.4317L3.96877 16.1267C3.18505 15.5573 3.58783 14.3177 4.55655 14.3177H15.2832C15.7164 14.3177 16.1004 14.0387 16.2342 13.6267L19.5489 3.4251Z" fill="#FABD05"/>
</svg>
